<?xml version="1.0" encoding="UTF-8"?>
<svg id="final" xmlns="http://www.w3.org/2000/svg" version="1.1" viewBox="0 0 1300 1300">
  <!-- Generator: Adobe Illustrator 29.2.1, SVG Export Plug-In . SVG Version: 2.1.0 Build 116)  -->
  <defs>
    <style>
      .st0 {
        fill: #431878;
        <!-- fill: #662d91; -->
      }

      .st1 {
        fill: #fff;
      }

      .st2 {
        fill: #005522;
        <!-- fill: #009444; -->
      }
    </style>
  </defs>
  <g transform="translate(167.27, 8.88)">
	  <g>
		<path class="st1" d="M42.26,416.33c-3.41,0-6.96-.45-10.63-1.33-6.76-1.64-12.51-4.49-17.1-8.46-4.55-3.94-8.08-8.7-10.48-14.15-2.35-5.35-3.7-11.24-3.99-17.5-.29-6.15.33-12.43,1.84-18.64,1.21-4.97,2.72-9.48,4.51-13.39,1.74-3.8,3.42-7.13,5.01-9.9,1.65-2.87,3.07-5.07,4.34-6.73.14-.19.27-.36.39-.51-.52-.76-.76-1.68-.68-2.6.1-1.11.65-2.13,1.54-2.82l2.19-1.69c1.62-1.25,3.93-1.08,5.35.41l14.29,15.02c.75.79,1.15,1.85,1.1,2.93s-.54,2.11-1.35,2.83l-1.32,1.16c-.98.86-2.32,1.19-3.59.88-.06-.01-.13-.02-.2-.03-.16-.01-.38-.02-.63-.02-.17.09-.56.34-1.17.92-1.24,1.19-2.51,2.8-3.77,4.79-1.34,2.11-2.6,4.43-3.76,6.88-1.11,2.36-1.92,4.61-2.42,6.67-.85,3.51-1.17,7.03-.95,10.47.21,3.34.97,6.4,2.25,9.11,1.25,2.65,3.05,4.99,5.34,6.95,2.24,1.92,5.09,3.31,8.47,4.13,3.38.82,6.55.89,9.42.21,2.94-.69,5.61-1.95,7.94-3.73,2.38-1.82,4.45-4.2,6.17-7.07,1.77-2.96,3.11-6.24,3.96-9.74.65-2.7,1.03-5.66,1.11-8.8.09-3.2-.06-6.2-.45-8.94-.36-2.6-.94-4.84-1.71-6.66-.23-.54-.43-.91-.58-1.14-.8.15-1.64.05-2.4-.29-1.06-.48-1.86-1.41-2.18-2.53l-.64-2.23c-.6-2.07.55-4.23,2.59-4.91l17.07-5.64c1.77-.59,3.7.13,4.67,1.72l.85,1.39c.55.9.72,1.99.47,3.02-.11.44-.24.86-.41,1.25.05.39.2,1.19.59,2.71.63,2.46,1.28,5.56,1.91,9.21.65,3.76,1,7.98,1.03,12.53.03,4.65-.54,9.44-1.7,14.22-1.5,6.2-3.77,12.06-6.74,17.39-3.04,5.47-6.86,10.12-11.37,13.81-4.58,3.76-9.85,6.39-15.66,7.82-2.72.67-5.56,1.01-8.52,1.01ZM23.37,329.4c-.33.48-.75,1.04-1.27,1.72-1.04,1.35-2.3,3.31-3.74,5.83-1.47,2.56-3.04,5.67-4.67,9.24-1.57,3.45-2.92,7.47-4.01,11.95-1.33,5.48-1.87,10.99-1.62,16.38.25,5.28,1.37,10.21,3.32,14.65,1.92,4.35,4.74,8.16,8.39,11.32,3.62,3.13,8.24,5.39,13.75,6.73,5.59,1.36,10.76,1.47,15.35.34,4.65-1.14,8.85-3.24,12.5-6.24,3.72-3.05,6.9-6.93,9.45-11.52,2.62-4.71,4.62-9.89,5.96-15.39,1.01-4.15,1.5-8.28,1.47-12.28-.03-4.11-.33-7.88-.91-11.21-.6-3.44-1.2-6.33-1.78-8.58-.31-1.19-.52-2.14-.66-2.93l-5.65,1.86c.51.75.97,1.61,1.39,2.59,1.04,2.46,1.81,5.38,2.27,8.67.45,3.17.62,6.62.52,10.26-.1,3.7-.55,7.22-1.34,10.46-1.04,4.29-2.68,8.32-4.87,11.97-2.25,3.74-4.99,6.87-8.17,9.31-3.23,2.48-6.92,4.21-10.97,5.17-4.1.97-8.52.9-13.14-.22-4.61-1.12-8.58-3.08-11.79-5.82-3.16-2.7-5.64-5.94-7.38-9.62-1.71-3.63-2.72-7.67-3-12.02-.27-4.25.12-8.58,1.16-12.87.63-2.58,1.62-5.33,2.96-8.18,1.3-2.76,2.72-5.38,4.24-7.77,1.6-2.52,3.28-4.63,4.99-6.27.86-.82,1.71-1.48,2.54-1.98l-5.29-5.57ZM32.5,341.79s0,0,0,0c0,0,0,0,0,0ZM17.12,324.34h0Z"/>
		<path class="st1" d="M99.4,318.85c-.67,0-1.35-.17-1.97-.52l-2.25-1.28c-1.92-1.09-2.59-3.53-1.5-5.45.06-.1.11-.19.15-.28l-54.37-30.92c-.05.08-.11.18-.16.28-.52.92-1.39,1.6-2.42,1.88-1.02.28-2.12.15-3.04-.38l-2.25-1.28c-1.92-1.09-2.59-3.53-1.5-5.45l12.24-21.53c.53-.92,1.39-1.6,2.42-1.88,1.02-.29,2.11-.15,3.04.38l2.25,1.28c.92.53,1.6,1.39,1.88,2.42.28,1.02.15,2.12-.38,3.04,0,0,0,.02-.02.03l45.12,25.66,21.66-38.08c.18-.32.3-.62.35-.85-1.67-1.17-2.22-3.45-1.19-5.26l1.28-2.25c1.09-1.92,3.53-2.59,5.45-1.5l17.15,9.75c.92.52,1.6,1.39,1.88,2.42.28,1.02.14,2.12-.38,3.04l-1.28,2.25c-.87,1.53-2.59,2.27-4.23,1.95-.17.27-.36.59-.57.95l-33.89,59.58c-.74,1.3-2.09,2.02-3.48,2.02ZM41.09,272.25c.51.17.89.37,1.09.48l56.83,32.32c.2.11.56.34.97.69l29.83-52.45c.66-1.16,1.29-2.13,1.92-2.92l-5.22-2.97c-.21,1.1-.63,2.2-1.26,3.3l-23.63,41.56c-.53.92-1.39,1.6-2.42,1.88-1.02.28-2.12.15-3.04-.38l-49.82-28.33c-.2-.11-.56-.34-.97-.68l-4.28,7.52ZM138.28,254.99s0,0,0,0c0,0,0,0,0,0Z"/>
		<path class="st1" d="M148.27,238.73c-1.04,0-2.04-.4-2.79-1.13l-1.86-1.81c-1.38-1.34-1.59-3.43-.6-5l-45.02-43.68c-1.54,1.03-3.63.89-5.01-.45l-1.86-1.8c-.76-.74-1.2-1.75-1.21-2.81-.02-1.06.39-2.08,1.13-2.85l15.64-16.12c1.54-1.59,4.07-1.62,5.66-.09l1.86,1.8c1.31,1.27,1.56,3.21.75,4.74l12.83,12.44,3.05-29.46c.04-.65.07-1.25.1-1.8-.75-.14-1.46-.49-2.04-1.06l-1.86-1.8c-.76-.74-1.2-1.75-1.21-2.81-.02-1.06.39-2.08,1.13-2.85l21.06-21.7c1.54-1.59,4.07-1.62,5.66-.09l1.86,1.8c1.59,1.54,1.62,4.07.09,5.66-.53.54-.85,1.47-.94,2.74l-3.75,38.07,42.01,2.42c1.67.09,3.51.03,5.44-.18,1.62-.18,2.94-.55,3.94-1.12,1.54-.88,3.48-.63,4.76.61l1.86,1.8c.76.74,1.2,1.75,1.21,2.81.02,1.06-.39,2.08-1.13,2.85l-18.55,19.12c-.74.76-1.75,1.2-2.81,1.21-1.03,0-2.08-.39-2.85-1.13l-1.86-1.81c-.5-.49-.85-1.08-1.04-1.71l-33.22-1.84-1.07,9.49,12.49,12.11c1.51-.83,3.46-.66,4.75.6l1.86,1.8c.76.74,1.2,1.75,1.21,2.81.02,1.06-.39,2.08-1.13,2.85l-15.64,16.12c-.74.76-1.75,1.2-2.81,1.21h-.06ZM143.76,229.88h0ZM101.71,179.7c.33.23.63.48.92.75l46.92,45.53c.29.28.55.58.79.89l5.99-6.18c-.32-.22-.62-.47-.92-.76h0l-14.78-14.34c-.89-.86-1.33-2.09-1.19-3.32l1.71-15.2c.24-2.11,2.08-3.67,4.2-3.55l37.51,2.08s.07,0,.11,0c3.15.26,4.71.68,5.84,1.61l7.9-8.14c-1.46.08-2.87.08-4.22,0l-46.18-2.66c-1.09-.06-2.1-.57-2.81-1.39-.71-.83-1.05-1.91-.94-2.99l3.78-38.32-9.35,9.64c.12.1.23.2.34.31,1.76,1.71,1.72,4.2,1.7,5.02-.02,1.12-.08,2.57-.2,4.41,0,.06,0,.11-.01.17l-3.91,37.74c-.16,1.52-1.17,2.82-2.61,3.35-1.44.52-3.05.18-4.15-.89l-19.64-19.05c-.29-.28-.55-.58-.78-.89l-6,6.18ZM160.97,214.19h0s0,0,0,0ZM131,148.19h0Z"/>
		<path class="st1" d="M279.23,128.61c-3.48,0-6.88-.38-10.16-1.13-5.78-1.32-11.08-3.87-15.77-7.59-4.73-3.74-8.58-8.91-11.47-15.34-2.84-6.34-4.11-12.63-3.78-18.7.33-6.01,1.93-11.71,4.77-16.94,2.79-5.13,6.62-9.8,11.39-13.87,4.68-4,10.02-7.35,15.86-9.96,4.67-2.09,9.16-3.65,13.35-4.64,4.08-.96,7.74-1.66,10.89-2.1,3.27-.46,5.88-.68,7.98-.69.24,0,.45,0,.64,0,.28-.87.86-1.63,1.64-2.13.94-.61,2.09-.79,3.17-.51l2.68.69c1.99.51,3.26,2.45,2.95,4.48l-3.13,20.49c-.16,1.08-.76,2.04-1.65,2.66-.89.63-2,.87-3.06.66l-1.73-.33c-1.28-.25-2.36-1.1-2.89-2.29-.03-.07-.06-.13-.11-.19-.09-.14-.22-.31-.37-.51-.18-.08-.61-.23-1.45-.36-1.7-.25-3.75-.27-6.09-.05-2.49.23-5.09.65-7.74,1.25-2.54.57-4.82,1.3-6.75,2.17-3.3,1.48-6.28,3.38-8.86,5.66-2.51,2.22-4.47,4.69-5.83,7.36-1.33,2.61-2.08,5.47-2.22,8.48-.14,2.95.5,6.05,1.92,9.23,1.42,3.17,3.31,5.72,5.6,7.58,2.35,1.9,4.98,3.24,7.81,3.99,2.89.76,6.04.95,9.37.55,3.42-.41,6.83-1.36,10.13-2.84,2.53-1.13,5.1-2.65,7.63-4.51,2.58-1.89,4.87-3.85,6.79-5.83,1.84-1.88,3.25-3.71,4.22-5.43.29-.51.45-.9.55-1.16-.61-.54-1.05-1.27-1.24-2.08-.27-1.14-.03-2.33.66-3.27l1.37-1.88c1.27-1.74,3.68-2.16,5.47-.96l14.91,10.05c1.54,1.04,2.17,3,1.5,4.74l-.58,1.52c-.38.99-1.13,1.79-2.1,2.22-.42.19-.83.34-1.24.45-.27.28-.82.89-1.78,2.13-1.56,2.01-3.62,4.42-6.11,7.15-2.57,2.82-5.69,5.68-9.27,8.49-3.66,2.88-7.79,5.35-12.28,7.37-5.83,2.61-11.84,4.4-17.87,5.32-2.61.4-5.18.6-7.72.6ZM304.45,45.6c-.58.03-1.28.05-2.14.05-1.7,0-4.03.21-6.9.61-2.91.41-6.33,1.07-10.17,1.96-3.69.87-7.69,2.26-11.91,4.15-5.15,2.3-9.84,5.25-13.94,8.75-4.02,3.43-7.23,7.33-9.55,11.6-2.27,4.18-3.55,8.74-3.81,13.56-.26,4.78.78,9.82,3.1,14.99,2.35,5.25,5.43,9.41,9.14,12.34,3.75,2.97,7.98,5.01,12.58,6.06,4.7,1.07,9.71,1.22,14.89.42,5.33-.81,10.65-2.4,15.82-4.71,3.89-1.74,7.46-3.88,10.61-6.35,3.23-2.54,6.03-5.09,8.3-7.59,2.35-2.57,4.27-4.81,5.7-6.66.75-.97,1.38-1.72,1.91-2.31l-4.93-3.32c-.28.86-.68,1.75-1.2,2.68-1.3,2.33-3.14,4.72-5.47,7.11-2.23,2.29-4.85,4.54-7.79,6.7-2.99,2.19-6.05,3.99-9.09,5.35-4.03,1.81-8.22,2.98-12.45,3.48-4.33.52-8.49.26-12.36-.76-3.93-1.04-7.57-2.89-10.8-5.51-3.28-2.65-5.93-6.19-7.87-10.53-1.94-4.33-2.82-8.67-2.61-12.88.2-4.15,1.24-8.09,3.08-11.72,1.82-3.57,4.4-6.84,7.67-9.73,3.19-2.82,6.85-5.16,10.88-6.97,2.42-1.09,5.21-1.98,8.28-2.67,2.98-.67,5.92-1.14,8.74-1.4,2.98-.28,5.67-.25,8.01.1,1.18.18,2.22.44,3.12.79l1.16-7.6ZM334.49,97.35h0ZM333.87,93.46h0,0ZM300.53,60.72h0ZM300.23,60.4s0,0,0,0c0,0,0,0,0,0Z"/>
		<path class="st1" d="M388.03,94.45c-1.78,0-3.59-.07-5.4-.21-6.09-.46-11.93-1.95-17.35-4.43-5.5-2.52-10.36-6.16-14.43-10.82-4.17-4.77-6.96-10.84-8.29-18.05-1.33-7.2-.89-13.87,1.31-19.82,2.14-5.8,5.38-10.94,9.62-15.25,4.15-4.23,9.03-7.76,14.5-10.5,5.41-2.71,10.96-4.6,16.49-5.62h0c5.54-1.02,11.4-1.23,17.42-.63,6.08.61,11.9,2.17,17.29,4.64,5.51,2.52,10.36,6.16,14.43,10.82,4.17,4.78,6.96,10.85,8.29,18.05,1.33,7.2.89,13.87-1.31,19.82-2.14,5.8-5.38,10.93-9.62,15.25-4.18,4.26-9.1,7.73-14.63,10.33-5.4,2.54-10.94,4.35-16.45,5.36-3.83.71-7.8,1.06-11.88,1.06ZM395.3,16.8c-3.22,0-6.35.28-9.37.83h0c-4.8.88-9.63,2.53-14.36,4.9-4.67,2.34-8.84,5.35-12.37,8.95-3.44,3.51-6.08,7.68-7.83,12.42-1.69,4.58-2.01,9.83-.95,15.59,1.06,5.77,3.23,10.56,6.45,14.23,3.32,3.8,7.27,6.76,11.74,8.81,4.56,2.09,9.47,3.34,14.61,3.73,5.27.39,10.4.15,15.23-.75,4.83-.89,9.71-2.48,14.49-4.73,4.66-2.19,8.81-5.12,12.32-8.7,3.45-3.51,6.08-7.69,7.83-12.42,1.69-4.58,2.01-9.83.95-15.59-1.06-5.77-3.23-10.56-6.45-14.23-3.32-3.8-7.27-6.76-11.74-8.81-4.59-2.1-9.55-3.43-14.75-3.95-1.96-.2-3.89-.29-5.8-.29ZM385.21,13.7h0,0ZM390.46,81.44c-1.71,0-3.44-.11-5.17-.32-4.21-.52-8.2-1.69-11.86-3.47-3.76-1.83-7.04-4.38-9.76-7.57-2.81-3.31-4.68-7.34-5.53-11.99-.86-4.64-.56-9.08.9-13.18,1.4-3.95,3.55-7.5,6.41-10.55,2.78-2.96,6.09-5.48,9.84-7.47,3.72-1.98,7.62-3.35,11.6-4.08h0c3.97-.73,8.11-.84,12.29-.32,4.22.52,8.21,1.69,11.86,3.47,3.75,1.83,7.04,4.38,9.75,7.57,2.82,3.32,4.68,7.35,5.54,11.99.86,4.64.55,9.07-.89,13.18-1.4,3.96-3.56,7.51-6.41,10.55-2.78,2.97-6.09,5.48-9.84,7.47-3.72,1.98-7.63,3.35-11.6,4.08-2.33.43-4.71.64-7.12.64ZM388.34,30.66c-3.17.58-6.3,1.69-9.3,3.28-2.97,1.58-5.58,3.56-7.76,5.88-2.1,2.24-3.68,4.84-4.71,7.75-.99,2.8-1.18,5.76-.57,9.06.61,3.3,1.84,6,3.76,8.26,2,2.35,4.41,4.22,7.16,5.56,2.86,1.39,6,2.31,9.34,2.72,3.37.42,6.69.33,9.86-.25s6.3-1.69,9.3-3.28c2.97-1.58,5.58-3.55,7.76-5.88,2.09-2.24,3.68-4.84,4.71-7.75.99-2.8,1.18-5.77.57-9.06-.61-3.29-1.84-6-3.76-8.26-2-2.35-4.41-4.22-7.16-5.56-2.86-1.39-6-2.31-9.34-2.72-3.37-.42-6.69-.33-9.86.25h0Z"/>
		<path class="st1" d="M556.3,89.84c-.09,0-.18,0-.27,0l-22.56-1.5c-1.06-.07-2.05-.56-2.75-1.36-.7-.8-1.05-1.84-.98-2.9l.17-2.59c.14-2.17,2.02-3.82,4.14-3.73l2.07-31.19-24.31,38.24c-.79,1.24-2.2,1.94-3.65,1.85l-.43-.03c-1.47-.1-2.77-1-3.38-2.34l-18.46-40.88-2.06,31.03s.02,0,.03,0c2.2.15,3.87,2.05,3.73,4.25l-.17,2.59c-.07,1.06-.56,2.05-1.36,2.75-.8.7-1.83,1.05-2.9.98l-21.55-1.43c-2.2-.15-3.87-2.05-3.73-4.25l.17-2.59c.12-1.79,1.45-3.23,3.13-3.62l4.16-62.76c-.63-.23-1.19-.61-1.64-1.12-.7-.8-1.05-1.84-.98-2.9l.17-2.59c.15-2.2,2.04-3.88,4.26-3.73l26.87,1.78c1.06.07,2.05.56,2.75,1.36.7.8,1.05,1.84.98,2.9l-.17,2.59c-.08,1.25-.73,2.33-1.68,3,.15.33.31.68.48,1.03l15.03,32.21,19.21-29.52c.37-.59.69-1.12.97-1.58-.71-.78-1.11-1.83-1.04-2.96l.17-2.59c.07-1.06.56-2.05,1.36-2.75s1.83-1.05,2.9-.98l26.58,1.76c1.06.07,2.05.56,2.75,1.36.7.8,1.05,1.84.98,2.9l-.17,2.59c-.12,1.82-1.44,3.27-3.13,3.64l-4.16,62.76c1.61.62,2.74,2.22,2.62,4l-.17,2.59c-.14,2.11-1.9,3.73-3.99,3.73ZM541.77,80.87l8.02.53c-.04-.39-.04-.78-.02-1.19l4.35-65.52c.02-.31.06-.6.11-.89l-13.92-.92c0,.06,0,.12,0,.18-.08,1.16-.45,2.36-1.12,3.57-.43.77-1.02,1.77-1.82,3.04l-23.18,35.61c-.79,1.22-2.19,1.92-3.63,1.81-1.45-.1-2.73-.98-3.34-2.3l-18.07-38.72c-.45-.95-.85-1.83-1.2-2.68-.58-1.37-.82-2.59-.75-3.71,0-.11.02-.21.03-.32l-13.78-.91c.02.29.02.59,0,.89l-4.35,65.52c-.03.41-.08.8-.17,1.18l6.87.46c-.04-.39-.05-.78-.02-1.19l3.17-47.85c.07-1.06.56-2.05,1.36-2.75.8-.7,1.84-1.05,2.9-.98l.29.02c1.47.1,2.77,1,3.37,2.34l21.93,48.56,28.66-45.09c.79-1.24,2.19-1.95,3.65-1.85l.29.02c2.2.15,3.87,2.05,3.72,4.26l-3.16,47.7c-.03.39-.09.78-.18,1.17Z"/>
		<path class="st1" d="M599.63,102.2c-.39,0-.79-.06-1.19-.18l-25.16-7.82c-1.01-.31-1.86-1.02-2.35-1.96-.49-.94-.59-2.04-.28-3.05l.77-2.47c.66-2.11,2.89-3.29,5.01-2.63.54.17.96.27,1.29.33l18.54-59.62c-.31-.13-.71-.29-1.25-.45-1.01-.31-1.86-1.02-2.35-1.96-.49-.94-.59-2.04-.28-3.05l.77-2.48c.31-1.01,1.02-1.86,1.96-2.35.94-.49,2.04-.59,3.05-.28l48.4,15.05c9.5,2.95,16.61,7.19,21.13,12.59,4.94,5.91,6,13.54,3.16,22.67-2.84,9.14-8.04,14.82-15.46,16.88-6.78,1.89-15.04,1.35-24.54-1.61l-23.82-7.41-6,19.3c.16.06.35.13.58.2,2.11.66,3.29,2.9,2.63,5.01l-.77,2.47c-.53,1.71-2.11,2.81-3.82,2.81ZM584.46,89.29l8.25,2.56c.06-.48.16-.89.25-1.16l7.61-24.48c.66-2.11,2.9-3.29,5.01-2.63l27.64,8.59c8.01,2.49,14.75,3.01,20.02,1.54,4.7-1.31,7.96-5.09,9.97-11.55,2.01-6.46,1.47-11.42-1.66-15.17-3.51-4.2-9.36-7.59-17.36-10.08l-39.6-12.31c-.04.39-.13.78-.25,1.17l-19.41,62.43c-.12.39-.27.75-.46,1.1ZM643.14,68.76c-2.15,0-4.4-.36-6.72-1.09h0l-29.29-9.11c-1.01-.31-1.86-1.02-2.35-1.96-.49-.94-.59-2.04-.28-3.05l5.47-17.6c.66-2.11,2.9-3.29,5.01-2.63l29.29,9.11c3.66,1.14,6.66,2.91,8.91,5.25,1.97,2.05,3.9,5.8,1.99,11.97-1.92,6.18-5.64,8.17-8.42,8.74-1.16.24-2.36.36-3.6.36ZM638.79,60.04c2.36.73,4.49.91,6.33.53.98-.2,1.79-1.31,2.4-3.28.61-1.97.57-3.34-.12-4.06-1.3-1.36-3.16-2.42-5.51-3.15l-25.47-7.92-3.1,9.96,25.47,7.92Z"/>
		<path class="st1" d="M723,153.65c-3.97,0-8.21-.86-12.63-2.57-4.75-1.84-10.02-4.42-15.66-7.69-5.63-3.27-10.5-6.55-14.45-9.77-4.25-3.46-7.4-7.27-9.36-11.33-2.04-4.22-2.81-8.77-2.28-13.53.5-4.55,2.33-9.57,5.44-14.94l20.61-35.53s-.02-.01-.03-.02c-.92-.53-1.59-1.41-1.86-2.43-.27-1.03-.13-2.12.41-3.03l1.3-2.24c1.11-1.91,3.55-2.56,5.47-1.45l20.43,11.85c.92.53,1.59,1.41,1.86,2.43.27,1.03.13,2.12-.41,3.03l-1.3,2.24c-.96,1.66-2.95,2.37-4.7,1.8l-21.01,36.23c-3.4,5.86-1.74,8.75-1.19,9.71,1.87,3.26,5.77,6.63,11.6,10.01,5.83,3.38,10.69,5.09,14.45,5.09h0c1.1,0,4.44,0,7.83-5.86l20.96-36.15c-.08-.05-.17-.11-.27-.16-1.91-1.11-2.56-3.56-1.46-5.47l1.3-2.24c.53-.92,1.41-1.59,2.43-1.86,1.02-.28,2.12-.13,3.04.41l19.93,11.56c1.91,1.11,2.56,3.55,1.45,5.47l-1.3,2.24c-1.02,1.75-3.16,2.45-4.98,1.7l-20.62,35.56c-3.11,5.36-6.56,9.45-10.27,12.14-3.87,2.82-8.2,4.41-12.88,4.73-.61.04-1.23.06-1.85.06ZM702.79,60.02c-.13.37-.3.73-.51,1.08l-21.31,36.75c-2.55,4.4-4.03,8.37-4.41,11.8-.36,3.29.14,6.28,1.53,9.17,1.45,3,3.87,5.89,7.21,8.6,3.63,2.95,8.14,6,13.42,9.06,5.27,3.06,10.16,5.46,14.52,7.15,4.01,1.55,7.73,2.21,11.05,1.98,3.2-.22,6.05-1.27,8.72-3.22,2.8-2.04,5.51-5.3,8.06-9.69l21.31-36.75c.2-.35.43-.68.68-.98l-6.46-3.74c-.13.37-.3.73-.5,1.08l-21.67,37.37c-4.72,8.13-10.63,9.84-14.75,9.84h0c-5.26,0-11.3-2.02-18.46-6.17-7.17-4.16-11.92-8.4-14.53-12.96-2.05-3.58-3.5-9.56,1.22-17.69l21.67-37.37c.2-.34.43-.67.68-.98l-7.45-4.32Z"/>
		<path class="st1" d="M777.99,205.04c-.97,0-1.95-.35-2.72-1.07l-16.25-15.09c-.78-.72-1.24-1.72-1.28-2.78-.04-1.06.34-2.09,1.07-2.87l1.76-1.9c1.17-1.26,2.95-1.59,4.45-.98l35.49-38.22-14.32-13.3c-1.52,1.25-3.77,1.21-5.26-.16l-1.9-1.76c-1.62-1.5-1.71-4.03-.21-5.65l13.72-14.77c.72-.78,1.72-1.24,2.78-1.28,1.07-.05,2.09.34,2.87,1.07l1.9,1.76c1.48,1.38,1.69,3.62.55,5.23l46.53,43.21c.67-.55,1.51-.87,2.38-.9,1.06-.05,2.09.34,2.87,1.07l1.9,1.76c1.62,1.5,1.71,4.03.21,5.65l-13.72,14.77c-.72.78-1.72,1.24-2.78,1.28-1.07.03-2.09-.34-2.87-1.07l-1.9-1.76c-.78-.72-1.24-1.72-1.28-2.78-.03-.88.22-1.74.72-2.45l-14.32-13.3-35.38,38.1c1.07,1.51.97,3.61-.34,5.02l-1.76,1.9c-.79.85-1.86,1.28-2.93,1.28ZM769.23,187.44l6.31,5.86c.22-.33.46-.64.73-.93h0l39-42c.72-.78,1.72-1.24,2.78-1.28,1.07-.05,2.09.34,2.87,1.07l17.41,16.17c.58.54,1.08,1.15,1.49,1.83l4.01-4.32c-.7-.36-1.35-.81-1.93-1.35l-46.85-43.5c-.58-.54-1.08-1.15-1.49-1.82l-4.01,4.32c.7.36,1.35.81,1.93,1.35l17.41,16.17c1.62,1.5,1.71,4.03.21,5.65l-39,42c-.28.3-.57.57-.87.8ZM833.2,171.44h0ZM800.24,112.65s0,0,0,0c0,0,0,0,0,0Z"/>
		<path class="st1" d="M820.31,254.14c-.17,0-.34-.01-.51-.03-1.05-.13-2.01-.68-2.66-1.52l-14.61-18.92c-1.35-1.75-1.03-4.26.72-5.61l2.05-1.58c.84-.65,1.9-.94,2.96-.8.97.12,1.85.6,2.49,1.32l49.52-38.26c-.54-.8-.78-1.78-.65-2.75.14-1.05.68-2.01,1.52-2.66l2.05-1.58c1.75-1.35,4.26-1.03,5.61.72l14.61,18.92c.65.84.94,1.9.8,2.95-.14,1.05-.68,2.01-1.52,2.66l-2.05,1.58c-1.68,1.3-4.07,1.05-5.45-.52l-49.52,38.26c1.17,1.73.81,4.1-.87,5.4l-2.05,1.58c-.7.54-1.57.83-2.45.83ZM813.54,234.83l5.26,6.81c.26-.28.56-.55.88-.8l51.73-39.97c.31-.24.64-.45,1-.64l-5.27-6.82c-.27.3-.57.57-.87.81l-51.74,39.97c-.32.25-.65.46-1,.65ZM811.44,227.76h0,0Z"/>
		<path class="st1" d="M871.67,347.06c-.44,0-.88-.07-1.3-.22-1-.34-1.83-1.07-2.3-2.03l-10.25-20.95c-.97-1.98-.15-4.38,1.83-5.35l2.33-1.14c.63-.31,1.33-.44,2.03-.4l18.33-50.03-32.79,16.05c.23.79.21,1.63-.06,2.41-.34,1-1.07,1.83-2.03,2.3l-2.33,1.14c-.95.47-2.05.54-3.06.19-1-.34-1.83-1.07-2.29-2.03l-9.37-19.14c-.97-1.98-.15-4.38,1.83-5.35l2.33-1.14c.95-.47,2.05-.54,3.06-.19.59.2,1.12.54,1.55.98l56.56-27.67c-.22-1.66.62-3.35,2.21-4.13l2.33-1.14c.95-.47,2.05-.54,3.06-.19,1,.34,1.83,1.07,2.3,2.03l10.82,22.12c.97,1.98.15,4.38-1.83,5.35l-2.33,1.14c-.54.26-1.11.4-1.67.41-.14.34-.29.75-.46,1.25l-17.01,46.73,30.96-15.15c-.37-.9-.4-1.9-.08-2.82.34-1,1.07-1.83,2.03-2.29l2.33-1.14c1.99-.97,4.38-.15,5.35,1.83l9.56,19.53c.47.95.54,2.05.19,3.06-.34,1-1.07,1.83-2.03,2.29l-2.33,1.14c-1.59.78-3.44.41-4.61-.79l-56.56,27.67c.22,1.66-.62,3.35-2.21,4.13l-2.33,1.14c-.55.27-1.16.41-1.76.41ZM867.59,325.62l4.75,9.71c.32-.22.66-.42,1.03-.6l58.72-28.73c.37-.18.74-.33,1.1-.44l-3.28-6.69c-.33.24-.67.44-1.02.61l-41.13,20.13c-1.46.72-3.22.47-4.43-.62-1.21-1.09-1.64-2.81-1.08-4.34l20.38-55.98c1.31-3.83,2.54-5.7,4.36-6.58,0,0,.02,0,.03-.01l-5.64-11.52c-.32.22-.66.42-1.02.6l-58.72,28.73c-.38.19-.75.33-1.1.45l3.27,6.68c.32-.22.66-.43,1.02-.6l42.94-21.01c1.46-.72,3.22-.47,4.44.62s1.64,2.81,1.08,4.35l-21.83,59.58c-1.09,3.16-2.22,4.84-3.86,5.69ZM839.98,263.29h.01-.01Z"/>
		<path class="st1" d="M901,443.99c-1.06,0-2.09-.42-2.85-1.19-2.89-2.94-5.46-6.18-7.61-9.64-2.12-3.4-3.95-6.95-5.43-10.54-1.49-3.6-2.67-7.32-3.5-11.04-.81-3.59-1.51-7.16-2.1-10.6-1.19-6.99-1.39-13.61-.61-19.7.79-6.23,2.66-11.87,5.53-16.76,2.89-4.93,6.8-9.08,11.6-12.33,4.78-3.23,10.5-5.43,17-6.54,6.5-1.1,12.63-.92,18.21.56,5.59,1.48,10.66,4.09,15.07,7.78,4.36,3.64,8.04,8.32,10.95,13.92,2.86,5.5,4.91,11.83,6.09,18.83.74,4.34,1.15,8.6,1.23,12.66.08,3.98,0,7.6-.21,10.76-.22,3.13-.48,5.79-.77,7.93-.2,1.41-.26,2.15-.29,2.51.44.41.84.83,1.2,1.26.95,1.11,1.21,2.64.7,4l-.7,1.87c-.72,1.91-2.77,2.97-4.74,2.47l-20.16-5.19c-1.95-.5-3.22-2.37-2.97-4.37l.37-2.98c.13-1.07.69-2.05,1.56-2.7.86-.65,1.95-.92,3.02-.76.12.02.23.02.33.02.1-.11.3-.38.54-.93.68-1.58,1.18-3.63,1.48-6.07.32-2.6.4-5.43.26-8.42-.15-3.07-.46-5.98-.91-8.64-.53-3.12-1.51-6.18-2.92-9.12-1.35-2.81-3.13-5.25-5.29-7.24-2.08-1.92-4.66-3.36-7.65-4.27-2.98-.91-6.56-1.01-10.66-.32-4.01.68-7.34,1.97-9.9,3.82-2.57,1.86-4.54,4.06-5.87,6.56-1.38,2.59-2.25,5.48-2.6,8.58-.36,3.23-.28,6.45.25,9.57.87,5.11,2.08,9.66,3.6,13.53,1.11,2.82,2.2,5.35,3.27,7.54l5.38-.91-2.42-14.23c-.01-.07-.02-.13-.04-.19-.24,0-.57,0-1.01.02-2.06.14-3.87-1.29-4.22-3.32l-.43-2.56c-.18-1.05.07-2.12.68-2.99.61-.87,1.55-1.45,2.59-1.63l18.17-3.09c2.17-.37,4.24,1.09,4.61,3.27l.43,2.56c.34,2-.87,3.94-2.82,4.51-.07.02-.13.04-.19.06.01.09.03.2.05.32l6.03,35.49c.37,2.18-1.09,4.24-3.27,4.61l-2.55.43c-1.95.33-3.85-.81-4.47-2.7-.11-.34-.21-.63-.3-.87l-14.38,2.44-.21.71c-.44,1.45-1.66,2.53-3.16,2.79l-2.27.39c-.22.04-.45.06-.67.06ZM921.2,436.47h0ZM921.15,352.97c-2.18,0-4.45.2-6.78.59-5.37.91-10.03,2.69-13.86,5.28-3.81,2.58-6.9,5.86-9.19,9.75-2.32,3.95-3.83,8.56-4.49,13.72-.68,5.3-.49,11.14.57,17.35.56,3.3,1.24,6.73,2.01,10.18.74,3.28,1.78,6.56,3.09,9.75,1.31,3.18,2.93,6.33,4.82,9.35,1.17,1.87,2.47,3.66,3.9,5.37.74-.84,1.9-1.64,3.74-1.95l16.04-2.72c.73-.12,1.41-.18,2.05-.15l-4.67-27.48c-.18-1.07-.24-2.04-.17-2.92l-2.75.47c.4.82.69,1.76.87,2.81l3.09,18.17c.18,1.05-.07,2.12-.68,2.99-.61.86-1.55,1.45-2.59,1.63l-12.21,2.07c-1.69.29-3.36-.53-4.18-2.03-1.63-2.99-3.31-6.68-4.99-10.96-1.72-4.38-3.08-9.47-4.04-15.11-.66-3.86-.76-7.83-.31-11.8.46-4.11,1.64-7.96,3.49-11.44,1.91-3.58,4.68-6.7,8.24-9.28,3.56-2.58,8.02-4.33,13.25-5.22,5.33-.91,10.15-.72,14.32.55,4.15,1.26,7.77,3.3,10.75,6.04,2.9,2.68,5.28,5.93,7.07,9.65,1.74,3.61,2.95,7.39,3.6,11.25.5,2.97.85,6.19,1.01,9.58.17,3.45.07,6.74-.3,9.79-.39,3.2-1.09,5.98-2.07,8.26-.44,1.01-.93,1.85-1.46,2.54l6.98,1.8c0-.8.11-1.94.37-3.81.27-1.95.51-4.43.72-7.37.2-2.92.27-6.3.2-10.05-.07-3.66-.45-7.53-1.12-11.48-1.05-6.18-2.83-11.73-5.31-16.48-2.42-4.65-5.44-8.51-8.99-11.47-3.5-2.93-7.53-5-11.99-6.18-2.52-.67-5.21-1-8.04-1ZM925.54,400.61h0Z"/>
	  </g>
	  <g>
		<path class="st0" d="M79.23,335.45c-.07.28-.15.53-.26.75-.1.22-.19.47-.26.75-.14.56.1,2.03.71,4.4.61,2.37,1.22,5.33,1.84,8.89.62,3.56.94,7.52.97,11.87.03,4.36-.5,8.77-1.58,13.25-1.43,5.88-3.54,11.34-6.35,16.39-2.8,5.05-6.27,9.27-10.41,12.66-4.13,3.39-8.82,5.74-14.08,7.03-5.25,1.3-11,1.18-17.26-.33-6.16-1.49-11.3-4.02-15.42-7.59-4.12-3.57-7.27-7.81-9.43-12.73-2.16-4.92-3.38-10.28-3.66-16.08-.27-5.79.3-11.63,1.73-17.51,1.15-4.76,2.58-8.98,4.26-12.67,1.69-3.69,3.3-6.88,4.84-9.57,1.54-2.69,2.89-4.78,4.04-6.28,1.16-1.5,1.78-2.43,1.87-2.81.11-.47-.02-.92-.41-1.36-.39-.44-.7-.79-.93-1.04l2.19-1.69,14.29,15.02-1.32,1.16c-.28-.07-.57-.11-.86-.13-.29-.02-.63-.03-1.03-.03-1.07-.06-2.35.62-3.83,2.04-1.48,1.42-2.94,3.26-4.38,5.53-1.44,2.27-2.77,4.71-4,7.33-1.23,2.62-2.12,5.09-2.69,7.42-.95,3.92-1.3,7.81-1.05,11.67.25,3.86,1.12,7.38,2.62,10.56,1.5,3.18,3.62,5.94,6.36,8.29,2.74,2.35,6.12,4,10.13,4.98,4.01.97,7.77,1.05,11.28.22,3.51-.83,6.66-2.31,9.45-4.45,2.79-2.14,5.18-4.87,7.17-8.19,1.99-3.32,3.46-6.94,4.41-10.86.72-2.98,1.13-6.19,1.22-9.63.09-3.43-.07-6.63-.49-9.6-.42-2.96-1.08-5.52-1.99-7.67-.91-2.15-1.97-3.37-3.19-3.66-.65-.16-1.26-.11-1.81.15l-.64-2.23,17.07-5.64.85,1.39Z"/>
		<path class="st0" d="M138.09,252.36c-1.25-.71-2.19-.72-2.8-.02-.62.7-1.28,1.67-1.99,2.92l-33.89,59.58-2.25-1.28c1.42-2.5,1.38-4.18-.12-5.04l-56.83-32.32c-1.5-.85-2.96-.03-4.39,2.47l-2.25-1.28,12.24-21.53,2.25,1.28c-1.33,2.34-1.24,3.93.26,4.79l49.82,28.33,23.63-41.56c.71-1.25,1-2.44.87-3.57-.13-1.12-.7-1.97-1.7-2.54l1.28-2.25,17.15,9.75-1.28,2.25Z"/>
		<path class="st0" d="M158.19,217.07c.62.6,1.29.85,2,.73.71-.11,1.33-.44,1.87-1l1.86,1.8-15.64,16.12-1.86-1.81c1.47-1.51,1.59-2.88.35-4.08l-46.92-45.53c-1.24-1.2-2.6-1.05-4.07.47l-1.86-1.8,15.64-16.12,1.86,1.8c-.54.55-.85,1.18-.94,1.9-.09.71.17,1.37.79,1.97l19.64,19.05,3.91-37.74c.11-1.77.17-3.18.19-4.23.02-1.05-.14-1.75-.49-2.08-.48-.47-.98-.65-1.48-.54-.51.11-.96.37-1.36.78l-1.86-1.8,21.06-21.7,1.86,1.8c-1.2,1.24-1.89,2.98-2.06,5.23l-4.15,42.12,46.17,2.66c1.9.11,3.94.04,6.11-.19,2.17-.23,3.99-.77,5.47-1.61l1.86,1.8-18.55,19.12-1.86-1.81c.87-.89,1.06-1.58.58-2.04-.34-.33-1.57-.59-3.68-.76l-37.51-2.08-1.71,15.2,14.78,14.34Z"/>
		<path class="st0" d="M333.87,93.46c-.26.12-.51.21-.75.26-.24.05-.49.14-.75.26-.53.24-1.54,1.32-3.04,3.25-1.5,1.93-3.47,4.24-5.9,6.9s-5.36,5.35-8.79,8.04c-3.42,2.69-7.24,4.98-11.44,6.86-5.52,2.47-11.14,4.15-16.84,5.02-5.71.88-11.17.72-16.38-.47-5.21-1.19-9.94-3.46-14.18-6.83-4.24-3.36-7.67-7.98-10.3-13.85-2.59-5.78-3.74-11.4-3.44-16.84.3-5.44,1.73-10.53,4.29-15.25,2.56-4.72,6.05-8.97,10.47-12.74,4.41-3.76,9.38-6.88,14.9-9.36,4.47-2,8.68-3.46,12.63-4.39,3.95-.92,7.46-1.6,10.53-2.03,3.07-.43,5.55-.64,7.44-.65,1.89,0,3.01-.09,3.36-.24.44-.2.71-.58.82-1.16.11-.57.19-1.03.25-1.38l2.68.69-3.13,20.49-1.73-.33c-.12-.26-.26-.52-.42-.76-.16-.24-.37-.52-.61-.83-.61-.88-1.92-1.48-3.95-1.78-2.03-.3-4.38-.33-7.05-.08-2.68.25-5.42.69-8.24,1.32-2.82.63-5.33,1.44-7.52,2.42-3.68,1.65-6.97,3.75-9.87,6.31-2.9,2.56-5.15,5.41-6.75,8.54-1.59,3.13-2.48,6.5-2.65,10.1-.18,3.6.58,7.29,2.27,11.05,1.69,3.77,3.93,6.79,6.74,9.05,2.8,2.27,5.91,3.85,9.31,4.75,3.4.9,7.02,1.12,10.87.66,3.84-.46,7.61-1.51,11.29-3.16,2.8-1.25,5.59-2.9,8.36-4.93,2.77-2.03,5.2-4.12,7.29-6.26,2.09-2.14,3.71-4.24,4.84-6.27,1.14-2.03,1.46-3.62.94-4.76-.27-.61-.69-1.06-1.23-1.34l1.37-1.88,14.91,10.05-.58,1.52Z"/>
		<path class="st0" d="M385.21,13.7c5.19-.96,10.62-1.15,16.29-.59,5.67.57,11.01,2,16.02,4.29,5.01,2.3,9.37,5.57,13.08,9.81,3.71,4.25,6.17,9.62,7.37,16.14,1.2,6.51.83,12.42-1.13,17.71-1.95,5.29-4.86,9.9-8.72,13.83-3.86,3.93-8.35,7.1-13.47,9.51-5.12,2.41-10.28,4.09-15.47,5.05-5.19.96-10.61,1.22-16.25.8-5.64-.42-10.97-1.79-15.98-4.08-5.01-2.3-9.37-5.57-13.08-9.81-3.71-4.24-6.17-9.62-7.37-16.14-1.2-6.51-.83-12.42,1.13-17.71,1.95-5.29,4.86-9.9,8.72-13.83,3.86-3.93,8.34-7.18,13.44-9.73s10.24-4.3,15.43-5.26ZM387.61,26.73c-3.59.66-7.07,1.89-10.45,3.68-3.38,1.79-6.31,4.02-8.8,6.67-2.49,2.66-4.34,5.71-5.56,9.15-1.22,3.45-1.46,7.15-.73,11.12s2.28,7.34,4.65,10.12c2.37,2.79,5.19,4.97,8.46,6.57,3.27,1.59,6.8,2.63,10.6,3.1,3.8.47,7.49.38,11.08-.29,3.59-.66,7.07-1.89,10.45-3.68,3.38-1.79,6.31-4.02,8.8-6.67,2.49-2.66,4.34-5.71,5.56-9.15,1.22-3.45,1.46-7.15.73-11.12s-2.28-7.34-4.65-10.12c-2.37-2.78-5.19-4.97-8.46-6.57-3.27-1.59-6.81-2.63-10.6-3.1-3.8-.47-7.49-.38-11.08.29Z"/>
		<path class="st0" d="M462.06,76.99c.77.05,1.45-.12,2.05-.51s.93-1.02.99-1.88l4.35-65.52c.06-.86-.19-1.48-.74-1.85-.55-.37-1.21-.59-1.98-.64l.17-2.59,26.87,1.78-.17,2.59c-.48-.03-.99.08-1.54.33-.55.25-.84.67-.88,1.24-.03.48.12,1.11.45,1.91.33.79.71,1.63,1.13,2.53l18.07,38.72,23.14-35.55c.75-1.2,1.32-2.15,1.7-2.85.38-.7.59-1.33.63-1.91.07-1.05-.52-1.62-1.76-1.71l.17-2.59,26.58,1.76-.17,2.59c-.77-.05-1.45.07-2.04.37-.6.3-.92.88-.98,1.74l-4.35,65.52c-.06.86.19,1.53.73,2,.55.47,1.2.73,1.97.78l-.17,2.59-22.56-1.5.17-2.59c2.59.17,3.94-.61,4.05-2.33l3.16-47.7-.29-.02-32.39,50.96-.43-.03-24.79-54.9-.29-.02-3.17,47.85c-.11,1.72,1.17,2.67,3.85,2.85l-.17,2.59-21.55-1.43.17-2.59Z"/>
		<path class="st0" d="M574.47,90.37l.77-2.47c3.39,1.05,5.34.76,5.86-.89l19.41-62.43c.51-1.65-.93-3-4.32-4.06l.77-2.48,48.4,15.05c8.8,2.74,15.21,6.52,19.25,11.34,4.03,4.82,4.83,11.13,2.41,18.92-2.42,7.79-6.66,12.53-12.71,14.22-6.05,1.69-13.48,1.16-22.28-1.57l-27.64-8.59-7.61,24.48c-.51,1.65.7,2.93,3.63,3.84l-.77,2.47-25.16-7.82ZM637.6,63.86c3.03.94,5.8,1.15,8.33.63,2.52-.52,4.33-2.52,5.41-6.01,1.08-3.48.73-6.16-1.05-8.02-1.78-1.86-4.19-3.26-7.21-4.2l-29.29-9.11-5.47,17.6,29.29,9.11Z"/>
		<path class="st0" d="M717.07,66.67c-1.83-1.06-3.17-.84-4.04.65l-21.67,37.37c-3.04,5.23-3.44,9.8-1.21,13.7,2.23,3.9,6.59,7.73,13.06,11.49s11.96,5.63,16.46,5.63c4.49,0,8.26-2.62,11.29-7.85l21.67-37.37c.87-1.5.05-2.96-2.44-4.41l1.3-2.24,19.93,11.56-1.3,2.24c-1.99-1.16-3.42-.99-4.29.51l-21.31,36.75c-2.84,4.9-5.9,8.54-9.16,10.92-3.27,2.38-6.87,3.7-10.8,3.98-3.93.27-8.19-.48-12.76-2.24-4.58-1.77-9.61-4.24-15.09-7.42-5.48-3.18-10.13-6.32-13.93-9.41-3.81-3.1-6.57-6.42-8.29-9.97-1.72-3.55-2.35-7.33-1.91-11.35.44-4.02,2.08-8.47,4.93-13.37l21.31-36.75c.87-1.5.14-2.92-2.19-4.26l1.3-2.24,20.43,11.85-1.3,2.24Z"/>
		<path class="st0" d="M779.2,195.08c-1.18,1.27-.99,2.62.56,4.06l-1.76,1.9-16.25-15.09,1.76-1.9c.49.46,1.08.71,1.76.75.68.04,1.32-.25,1.9-.89l39-42-17.41-16.17c-.63-.59-1.41-.98-2.34-1.19-.93-.2-1.84.19-2.76,1.17l-1.9-1.76,13.72-14.77,1.9,1.76c-.92.99-1.24,1.93-.96,2.84.27.91.72,1.65,1.36,2.24l46.85,43.5c.63.59,1.41.98,2.34,1.19.92.2,1.84-.19,2.76-1.17l1.9,1.76-13.72,14.77-1.9-1.76c.91-.98,1.23-1.93.96-2.84-.27-.91-.72-1.65-1.36-2.24l-17.41-16.17-39,42Z"/>
		<path class="st0" d="M807.75,229.64c1.53,1.97,2.97,2.43,4.34,1.38l51.73-39.97c1.37-1.06,1.29-2.57-.24-4.55l2.05-1.58,14.61,18.92-2.05,1.58c-1.53-1.98-2.97-2.43-4.34-1.38l-51.73,39.97c-1.37,1.06-1.29,2.57.24,4.55l-2.05,1.58-14.61-18.92,2.05-1.58Z"/>
		<path class="st0" d="M836.34,264.95c.8,1.64,1.98,2.08,3.53,1.32l58.72-28.73c1.55-.76,1.93-1.96,1.12-3.6l2.33-1.14,10.82,22.12-2.33,1.14c-.34-.69-.94-.82-1.8-.4-.69.34-1.48,1.79-2.36,4.36l-20.38,55.98,41.13-20.13c1.55-.76,1.78-2.26.68-4.5l2.33-1.14,9.56,19.53-2.33,1.14c-.8-1.64-1.98-2.08-3.53-1.32l-58.72,28.73c-1.55.76-1.93,1.96-1.13,3.6l-2.33,1.14-10.25-20.95,2.33-1.14c.55,1.12,1.21,1.49,1.99,1.11.6-.29,1.26-1.47,1.96-3.53l21.83-59.58-42.94,21.01c-1.55.76-1.84,2.13-.87,4.11l-2.33,1.14-9.37-19.14,2.33-1.14Z"/>
		<path class="st0" d="M940.59,421.15l.37-2.98c.6.09,1.18.09,1.75,0,1.42-.24,2.55-1.33,3.39-3.28.84-1.95,1.43-4.33,1.78-7.17.35-2.83.44-5.87.28-9.1-.16-3.24-.48-6.27-.96-9.11-.59-3.5-1.68-6.9-3.26-10.18-1.58-3.29-3.64-6.1-6.18-8.44-2.54-2.34-5.61-4.06-9.2-5.16-3.6-1.09-7.76-1.24-12.49-.44-4.64.79-8.5,2.29-11.57,4.52-3.08,2.23-5.43,4.87-7.05,7.92-1.62,3.05-2.64,6.39-3.05,10.01-.41,3.62-.31,7.18.28,10.69.92,5.39,2.19,10.17,3.82,14.32,1.63,4.15,3.22,7.65,4.78,10.51l12.21-2.07-3.09-18.17c-.22-1.33-.68-2.27-1.36-2.84-.68-.57-1.98-.78-3.91-.65l-.43-2.56,18.17-3.09.43,2.56c-1.58.46-2.52,1.06-2.84,1.8-.31.73-.36,1.76-.13,3.09l6.03,35.49-2.55.43c-.61-1.85-1.14-2.97-1.6-3.38-.46-.41-1.31-.51-2.53-.3l-16.04,2.72c-.95.16-1.51.55-1.7,1.17s-.41,1.33-.66,2.16l-2.27.39c-2.71-2.75-5.06-5.74-7.07-8.95-2.01-3.22-3.71-6.53-5.12-9.94-1.41-3.41-2.51-6.88-3.3-10.39-.79-3.52-1.48-6.98-2.06-10.39-1.13-6.62-1.32-12.8-.59-18.52.73-5.72,2.4-10.8,5.01-15.24,2.61-4.44,6.07-8.12,10.39-11.04s9.47-4.89,15.43-5.91,11.47-.85,16.51.48,9.55,3.66,13.53,6.98c3.97,3.32,7.29,7.55,9.97,12.69,2.67,5.14,4.58,11.03,5.7,17.66.71,4.16,1.1,8.19,1.17,12.07.07,3.88,0,7.35-.21,10.41-.21,3.05-.46,5.6-.75,7.65-.29,2.04-.39,3.3-.31,3.78.14.85.45,1.48.91,1.89.46.41.87.82,1.23,1.25l-.7,1.87-20.16-5.19Z"/>
	  </g>
	  <g>
		<path class="st1" d="M479.56,125.68c201.01,0,364.54,143.85,364.54,320.67,0,70.49-25.52,137.37-73.79,193.39-15.6,18.12-44.92,84.67-55.9,115.35l-49.88,200.21c-2.09,8.4-8.85,14.62-17.1,16.21,8.2,1.88,14.35,9.22,14.35,17.99v164.86c0,22.16-19.68,39.73-45.42,41.24-9.15,21.57-26.86,40.78-50.3,54.45-25.09,14.63-54.94,22.36-86.31,22.36-61.89,0-117.28-31.37-136.6-76.79-25.95-1.34-45.83-18.98-45.83-41.26v-164.86c0-8.71,6.06-16.01,14.18-17.95-8.3-1.52-15.14-7.73-17.28-16.14l-50.96-200.32c-12.92-36.83-39.8-98.27-54.51-115.35-48.25-56.03-73.75-122.9-73.75-193.38,0-176.82,163.55-320.67,364.57-320.67M479.56,115.84c-206.45,0-374.42,148.27-374.42,330.51,0,72.88,26.33,141.97,76.14,199.81,12.61,14.63,38.53,71.96,52.54,111.77l50.86,199.9c1.44,5.67,4.41,10.72,8.42,14.7-3.56,4.76-5.62,10.65-5.62,16.96v164.86c0,25.7,20.71,46.56,49.09,50.51,10.84,22.02,29.43,40.86,54.09,54.75,26.28,14.8,57.09,22.63,89.1,22.63s64.67-8.2,91.27-23.7c23.2-13.53,41.45-32.46,51.95-53.74,28.13-4.11,48.66-24.95,48.66-50.45v-164.86c0-6.43-2.12-12.4-5.77-17.19,3.94-3.98,6.83-9,8.23-14.63l49.76-199.73c12.01-33.39,40.4-96.07,53.93-111.78,49.83-57.84,76.17-126.93,76.17-199.82,0-182.25-167.95-330.51-374.38-330.51h0Z"/>
		<g>
		  <path class="st1" d="M385.63,1195.69c18.55,24.15,54.75,39.78,94.11,39.78s75.68-15.63,94.15-39.78h-188.27Z"/>
		  <path class="st1" d="M334.25,1154.15c.6,1.35,4.96,4.6,12.09,4.6h266.42c7.13,0,11.49-3.25,12.08-4.6v-52.34h-290.6v52.34Z"/>
		  <rect class="st1" x="334.25" y="1007.96" width="290.6" height="56.92"/>
		  <path class="st1" d="M332.49,928.09h293.65l46-184.63c.18-.7.38-1.38.61-2.03,8.55-24.17,41.01-103.19,64.35-130.29,41.32-47.97,63.17-104.95,63.17-164.79,0-152.65-143.87-276.84-320.71-276.84s-320.75,124.19-320.75,276.84c0,59.84,21.83,116.82,63.13,164.77,24.47,28.39,55.92,110.09,63,130.41.22.64.4,1.25.55,1.83l46.99,184.71Z"/>
		  <g>
			<path class="st2" d="M643.31,977.42h-327.53c-6.67,0-12.07,5.4-12.07,12.07v164.86c0,19.6,18.73,34.94,42.63,34.94h1.18c16.63,44.86,70.77,76.71,132.23,76.71s115.63-31.74,132.22-76.71h.79c23.9,0,42.62-15.35,42.62-34.94v-164.86c0-6.66-5.4-12.07-12.07-12.07ZM631.24,1001.56v69.72h-303.4v-69.72h303.4ZM479.75,1241.87c-47.41,0-89.26-21.43-105.85-52.57h211.7c-16.5,31.2-58.13,52.57-105.85,52.57ZM612.76,1165.16h-266.42c-10.59,0-18.49-5.71-18.49-10.81v-58.94h303.4v58.94c0,5.1-7.91,10.81-18.48,10.81Z"/>
			<path class="st2" d="M479.75,1272.4c-61.89,0-117.28-31.37-136.6-76.79-25.95-1.34-45.83-18.98-45.83-41.26v-164.86c0-10.18,8.28-18.47,18.47-18.47h327.53c10.18,0,18.47,8.28,18.47,18.47v164.86c0,22.16-19.68,39.73-45.42,41.24-9.15,21.57-26.86,40.78-50.3,54.45-25.09,14.63-54.94,22.36-86.31,22.36ZM315.78,983.82c-3.12,0-5.67,2.54-5.67,5.67v164.86c0,16,15.91,28.54,36.23,28.54h5.63l1.55,4.17c15.83,42.71,67.74,72.53,126.23,72.53s110.46-29.82,126.22-72.52l1.54-4.18h5.25c20.31,0,36.22-12.54,36.22-28.54v-164.86c0-3.12-2.54-5.67-5.67-5.67h-327.53ZM479.75,1248.26c-24.1,0-47.39-5.29-67.35-15.29-20.06-10.05-35.33-24.12-44.15-40.68l-5.01-9.41h232.98l-4.97,9.39c-17.99,34.01-61.76,55.98-111.51,55.98ZM385.63,1195.69c18.55,24.15,54.75,39.78,94.11,39.78s75.68-15.63,94.15-39.78h-188.27ZM612.76,1171.56h-266.42c-13.49,0-24.89-7.88-24.89-17.21v-65.34h316.2v65.34c0,9.33-11.4,17.21-24.88,17.21ZM334.25,1154.15c.6,1.35,4.96,4.6,12.09,4.6h266.42c7.13,0,11.49-3.25,12.08-4.6v-52.34h-290.6v52.34ZM624.88,1154.07h0ZM334.21,1154.07,637.64,1077.68h-316.2v-82.52h316.2v82.52ZM334.25,1064.88h290.6v-56.92h-290.6v56.92Z"/>
		  </g>
		  <g>
			<path class="st0" d="M643.26,962.07h-327.82c-5.52,0-10.33-3.75-11.69-9.09l-51.07-200.74c-12.91-36.9-40.3-100.14-56.49-118.93-46.69-54.21-71.36-118.86-71.36-186.95,0-171.39,159.13-310.82,354.73-310.82s354.69,139.44,354.69,310.82c0,68.1-24.69,132.75-71.4,186.96-17.24,20.01-47.1,88.65-57.88,118.92l-50,200.68c-1.34,5.37-6.17,9.15-11.71,9.15ZM324.83,937.93h309l47.86-192.1c.09-.37.2-.75.33-1.11,9.65-27.25,41.34-102.55,62.54-127.16,42.89-49.78,65.55-108.98,65.55-171.21,0-158.08-148.29-286.69-330.56-286.69S148.97,288.27,148.97,446.35c0,62.23,22.66,121.43,65.51,171.2,21.14,24.52,50.85,97.64,61.17,127.23.11.33.21.66.3,1l48.89,192.16Z"/>
			<path class="st0" d="M643.27,971.91h-327.82c-10.03,0-18.76-6.79-21.24-16.51l-50.96-200.32c-12.92-36.83-39.8-98.27-54.51-115.35-48.25-56.03-73.75-122.9-73.75-193.38,0-176.82,163.55-320.67,364.57-320.67s364.54,143.85,364.54,320.67c0,70.49-25.52,137.37-73.79,193.39-15.6,18.12-44.92,84.67-55.9,115.35l-49.88,200.21c-2.44,9.78-11.18,16.61-21.26,16.61ZM479.56,145.38c-190.17,0-344.88,135.02-344.88,300.98,0,65.7,23.85,128.13,68.98,180.53,18.57,21.54,47.15,90.15,58.32,122.1l.25.82,51.07,200.74c.25.98,1.14,1.67,2.15,1.67h327.82c1.02,0,1.91-.69,2.15-1.68l50.11-201.15.16-.45c11.17-31.38,41.52-100.95,59.69-122.04,45.15-52.4,69.02-114.83,69.02-180.54,0-165.96-154.7-300.98-344.85-300.98ZM641.53,947.78h-324.35l-50.77-199.57c-.02-.09-.04-.16-.07-.22-11.25-32.28-40.21-101.85-59.31-124.01-44.42-51.58-67.9-113-67.9-177.63,0-163.51,152.72-296.54,340.44-296.54s340.4,133.03,340.4,296.54c0,64.62-23.49,126.05-67.94,177.64-18.75,21.76-49.49,92.3-60.71,124.02-.03.08-.05.15-.07.22l-49.71,199.54ZM332.49,928.09h293.65l46-184.63c.18-.7.38-1.38.61-2.03,8.55-24.17,41.01-103.19,64.35-130.29,41.32-47.97,63.17-104.95,63.17-164.79,0-152.65-143.87-276.84-320.71-276.84s-320.75,124.19-320.75,276.84c0,59.84,21.83,116.82,63.13,164.77,24.47,28.39,55.92,110.09,63,130.41.22.64.4,1.25.55,1.83l46.99,184.71Z"/>
		  </g>
		  <path class="st2" d="M470.53,869.61c-.86,0-1.74-.08-2.61-.26-6.18-1.24-10.65-6.65-10.69-12.95l-1.27-207.87-61.09-1.11c-4.11-.07-7.96-2.05-10.42-5.35-2.46-3.3-3.25-7.55-2.14-11.52l30.43-108.84-79.94-2.22c-3.98-.11-7.71-2-10.14-5.15-2.44-3.15-3.33-7.23-2.44-11.11l57.9-251.82c1.39-6.04,6.76-10.31,12.95-10.31h169.67c4.16,0,8.08,1.95,10.59,5.26,2.51,3.32,3.33,7.62,2.2,11.62l-38.35,136.63h69.99c4.41,0,8.53,2.18,11,5.83,2.47,3.65,2.98,8.28,1.35,12.38l-56.04,140.69h31.57c4.46,0,8.62,2.23,11.08,5.95,2.46,3.72,2.9,8.42,1.16,12.52l-122.54,289.52c-2.11,4.99-6.98,8.11-12.23,8.11ZM412.54,621.15l56.88,1.03c7.21.13,13.01,5.99,13.05,13.21l.95,156.35,89.58-211.66h-31.11c-4.41,0-8.53-2.18-11-5.83-2.47-3.65-2.98-8.28-1.35-12.38l56.04-140.69h-67.93c-4.16,0-8.08-1.95-10.59-5.26-2.51-3.32-3.33-7.62-2.2-11.62l38.35-136.63h-141.55l-51.9,225.69,80.74,2.24c4.09.11,7.9,2.11,10.33,5.4,2.43,3.29,3.2,7.52,2.1,11.46l-30.38,108.68Z"/>
		</g>
	  </g>
  </g>
</svg>